<svg width="80" height="79" viewBox="0 0 80 79" fill="none" xmlns="http://www.w3.org/2000/svg">
<path d="M74.6227 23.935L74.6016 24.2877L74.7402 24.6126C76.688 29.1825 77.7667 34.2134 77.7667 39.5C77.7667 60.4868 60.7536 77.5 39.7668 77.5C18.7799 77.5 1.76675 60.4868 1.76675 39.5C1.76675 34.4265 2.76022 29.5888 4.56185 25.168L4.71321 24.7966L4.65902 24.3992L1.89128 4.10238L13.5855 10.6035L14.4902 11.1065L15.2815 10.4391C21.8954 4.86059 30.4367 1.5 39.7668 1.5C48.8941 1.5 57.2663 4.71609 63.8178 10.0783L64.6723 10.7777L65.594 10.1696L75.849 3.40301L74.6227 23.935Z" stroke="#BBDED7" stroke-width="3"/>
<path d="M22.1535 26C24.478 26 26.3554 26.2443 27.7859 26.7329C29.2418 27.1957 30.3019 28.0057 30.966 29.1629C31.6557 30.2943 32.0005 31.8757 32.0005 33.9071C32.0005 35.7843 31.6174 37.3014 30.8511 38.4586C30.1103 39.59 28.7948 40.2714 26.9046 40.5029V40.6957C27.5943 40.85 28.3223 41.2229 29.0886 41.8143C29.8549 42.38 30.3913 43.3443 30.6978 44.7071L32.9967 53H26.8663L24.8356 44.8614C24.5802 44.0129 24.2226 43.4214 23.7628 43.0871C23.3285 42.7529 22.7155 42.5857 21.9236 42.5857C20.2378 42.5857 18.8457 42.5729 17.7473 42.5471V53H12V26.3857C13.0473 26.2829 14.0435 26.2057 14.9886 26.1543C15.9337 26.1029 16.9682 26.0643 18.0921 26.0386C19.216 26.0129 20.5698 26 22.1535 26ZM22.0386 30.4357C20.4804 30.4357 19.05 30.4357 17.7473 30.4357V38.15H22.0386C23.5967 38.15 24.6696 37.8929 25.2571 37.3786C25.8446 36.8386 26.1383 35.7971 26.1383 34.2543C26.1383 32.7371 25.8446 31.7214 25.2571 31.2071C24.6696 30.6929 23.5967 30.4357 22.0386 30.4357Z" fill="#BBDED7"/>
<path d="M63.8582 26.3857C65.2375 26.3857 65.9527 27.1057 66.0038 28.5457L67 53H61.5976L60.7163 30.8986H60.0266L55.7736 47.5229C55.5182 48.7571 54.7519 49.3743 53.4747 49.3743H49.7965C48.4937 49.3743 47.7147 48.7571 47.4592 47.5229L43.1679 30.8986H42.5166L41.712 53H36.3095L37.2674 28.5457C37.3185 27.1057 38.0465 26.3857 39.4514 26.3857H44.9304C46.1821 26.3857 46.9484 27.0029 47.2293 28.2371L50.6394 41.66C50.7927 42.2771 50.9204 42.9071 51.0225 43.55C51.1247 44.1671 51.2397 44.7971 51.3674 45.44H51.8655C51.9932 44.7971 52.1081 44.1671 52.2103 43.55C52.3125 42.9071 52.4402 42.2643 52.5935 41.6214L55.9652 28.2371C56.2207 27.0029 56.9997 26.3857 58.3024 26.3857H63.8582Z" fill="#BBDED7"/>
</svg>
